<mxfile host="65bd71144e">
    <diagram id="k-hk7OjZPeRuK6OuPr7A" name="Página-1">
        <mxGraphModel dx="1229" dy="883" grid="1" gridSize="10" guides="1" tooltips="1" connect="1" arrows="1" fold="1" page="1" pageScale="1" pageWidth="1169" pageHeight="827" math="0" shadow="0">
            <root>
                <mxCell id="0"/>
                <mxCell id="1" parent="0"/>
                <mxCell id="2" value="HomeScreenController" style="swimlane;fontStyle=1;align=center;verticalAlign=top;childLayout=stackLayout;horizontal=1;startSize=26;horizontalStack=0;resizeParent=1;resizeParentMax=0;resizeLast=0;collapsible=1;marginBottom=0;" parent="1" vertex="1">
                    <mxGeometry x="30" y="275" width="255" height="170" as="geometry"/>
                </mxCell>
                <mxCell id="3" value="- Stage stage&#10;- TextField txtUser;&#10;- PasswordField txtPassword&#10;" style="text;strokeColor=none;fillColor=none;align=left;verticalAlign=top;spacingLeft=4;spacingRight=4;overflow=hidden;rotatable=0;points=[[0,0.5],[1,0.5]];portConstraint=eastwest;" parent="2" vertex="1">
                    <mxGeometry y="26" width="255" height="54" as="geometry"/>
                </mxCell>
                <mxCell id="4" value="" style="line;strokeWidth=1;fillColor=none;align=left;verticalAlign=middle;spacingTop=-1;spacingLeft=3;spacingRight=3;rotatable=0;labelPosition=right;points=[];portConstraint=eastwest;" parent="2" vertex="1">
                    <mxGeometry y="80" width="255" height="8" as="geometry"/>
                </mxCell>
                <mxCell id="5" value="- eventKey(KeyEvent): void&#10;# showWindow2(ActionEvent): void&#10;+ setStage(Stage): void" style="text;strokeColor=none;fillColor=none;align=left;verticalAlign=top;spacingLeft=4;spacingRight=4;overflow=hidden;rotatable=0;points=[[0,0.5],[1,0.5]];portConstraint=eastwest;" parent="2" vertex="1">
                    <mxGeometry y="88" width="255" height="82" as="geometry"/>
                </mxCell>
                <mxCell id="6" value="MainSceneController" style="swimlane;fontStyle=1;align=center;verticalAlign=top;childLayout=stackLayout;horizontal=1;startSize=26;horizontalStack=0;resizeParent=1;resizeParentMax=0;resizeLast=0;collapsible=1;marginBottom=0;" parent="1" vertex="1">
                    <mxGeometry x="420" y="40" width="340" height="640" as="geometry"/>
                </mxCell>
                <mxCell id="7" value="- HS,BB,CC,BD,F,HD,JB,MP,P,PB,&#10;  PG, PM,PP,S,SP:    double&#10;&#10;-countBBinaria:  Spinner&#10;-countCC: Spinner&#10;-countD: Spinnner&#10;-countF: Spinnner&#10;-countHDoble: Spinnner&#10;-countHSimple: Spinnner&#10;-countJBurguer: Spinnner&#10;-countMPapas: Spinnner&#10;-countP: Spinnner&#10;-countPBurguer: Spinnner&#10;-countPGrandes: Spinnner&#10;-countPMedianas: Spinner&#10;-countPPequenas: Spinner&#10;-countS: Spinner&#10;-countSPapa: Spinner&#10;-lblFecha, lblTime,lblName: Label&#10;-txtAdress, txtCI, txtName, txtPhone: TextArea" style="text;strokeColor=none;fillColor=none;align=left;verticalAlign=top;spacingLeft=4;spacingRight=4;overflow=hidden;rotatable=0;points=[[0,0.5],[1,0.5]];portConstraint=eastwest;" parent="6" vertex="1">
                    <mxGeometry y="26" width="340" height="294" as="geometry"/>
                </mxCell>
                <mxCell id="8" value="" style="line;strokeWidth=1;fillColor=none;align=left;verticalAlign=middle;spacingTop=-1;spacingLeft=3;spacingRight=3;rotatable=0;labelPosition=right;points=[];portConstraint=eastwest;" parent="6" vertex="1">
                    <mxGeometry y="320" width="340" height="8" as="geometry"/>
                </mxCell>
                <mxCell id="9" value="# showWindow1(ActionEvent): void&#10;# showWindow3(Action Event): void&#10;# btnHSimple(MouseEvent): void&#10;# btnBBinaria(MouseEvent): void&#10;# btnBDieta(MouseEvent): void&#10;# btnCCola(MouseEvent): void&#10;# btnFanta(MouseEvent): void&#10;# btnHDoble(MouseEvent): void&#10;# btnJBurguer(MouseEvent): void&#10;# btnMPapas(MouseEvent): void&#10;# btnPBurguer(MouseEvent): void&#10;# btnPGrandes(MouseEvent): void&#10;# btnPMedianas(MouseEvent): void&#10;# btnPPequenas(MouseEvent): void&#10;# btnPepsi(MouseEvent): void&#10;# btnSPapa(MouseEvent): void&#10;# btnSprite(MouseEvent): void&#10;# sumarPedidos(ActionEvent): void&#10;+ init(String Stage HomeScreenController)&#10;+ showTime():void&#10;+ displayDatos(String String String String String String): void" style="text;strokeColor=none;fillColor=none;align=left;verticalAlign=top;spacingLeft=4;spacingRight=4;overflow=hidden;rotatable=0;points=[[0,0.5],[1,0.5]];portConstraint=eastwest;" parent="6" vertex="1">
                    <mxGeometry y="328" width="340" height="312" as="geometry"/>
                </mxCell>
                <mxCell id="10" value="LastSceneController" style="swimlane;fontStyle=1;align=center;verticalAlign=top;childLayout=stackLayout;horizontal=1;startSize=26;horizontalStack=0;resizeParent=1;resizeParentMax=0;resizeLast=0;collapsible=1;marginBottom=0;" parent="1" vertex="1">
                    <mxGeometry x="830" y="220" width="320" height="280" as="geometry"/>
                </mxCell>
                <mxCell id="11" value="-lblUser: Label&#10;-lblCI: Label&#10;-lblDireccion: Label&#10;-lblNombre: Label&#10;-lblPhone: Label&#10;-txtMostarIVA: Label&#10;-txtMostrarTotal: Label&#10;-txtMostrarCantidad: TextArea&#10;-txtMostrarPedido: TextArea&#10;-txtMostrarPrecio: TextArea&#10;" style="text;strokeColor=none;fillColor=none;align=left;verticalAlign=top;spacingLeft=4;spacingRight=4;overflow=hidden;rotatable=0;points=[[0,0.5],[1,0.5]];portConstraint=eastwest;" parent="10" vertex="1">
                    <mxGeometry y="26" width="320" height="154" as="geometry"/>
                </mxCell>
                <mxCell id="12" value="" style="line;strokeWidth=1;fillColor=none;align=left;verticalAlign=middle;spacingTop=-1;spacingLeft=3;spacingRight=3;rotatable=0;labelPosition=right;points=[];portConstraint=eastwest;" parent="10" vertex="1">
                    <mxGeometry y="180" width="320" height="8" as="geometry"/>
                </mxCell>
                <mxCell id="13" value="# showEditVentana2(ActionEvent): void&#10;# showVentana2(ActionEvent): void&#10;# generarPedido(ActionEvent): void&#10;+displayDatos(String String String String String): void&#10;+displayPedido(String String String String): void" style="text;strokeColor=none;fillColor=none;align=left;verticalAlign=top;spacingLeft=4;spacingRight=4;overflow=hidden;rotatable=0;points=[[0,0.5],[1,0.5]];portConstraint=eastwest;" parent="10" vertex="1">
                    <mxGeometry y="188" width="320" height="92" as="geometry"/>
                </mxCell>
                <mxCell id="15" value="App" style="swimlane;fontStyle=1;align=center;verticalAlign=top;childLayout=stackLayout;horizontal=1;startSize=26;horizontalStack=0;resizeParent=1;resizeParentMax=0;resizeLast=0;collapsible=1;marginBottom=0;" parent="1" vertex="1">
                    <mxGeometry x="77.5" y="680" width="160" height="86" as="geometry"/>
                </mxCell>
                <mxCell id="16" value="+ field: type" style="text;strokeColor=none;fillColor=none;align=left;verticalAlign=top;spacingLeft=4;spacingRight=4;overflow=hidden;rotatable=0;points=[[0,0.5],[1,0.5]];portConstraint=eastwest;" parent="15" vertex="1">
                    <mxGeometry y="26" width="160" height="26" as="geometry"/>
                </mxCell>
                <mxCell id="17" value="" style="line;strokeWidth=1;fillColor=none;align=left;verticalAlign=middle;spacingTop=-1;spacingLeft=3;spacingRight=3;rotatable=0;labelPosition=right;points=[];portConstraint=eastwest;" parent="15" vertex="1">
                    <mxGeometry y="52" width="160" height="8" as="geometry"/>
                </mxCell>
                <mxCell id="18" value="+ method(type): type" style="text;strokeColor=none;fillColor=none;align=left;verticalAlign=top;spacingLeft=4;spacingRight=4;overflow=hidden;rotatable=0;points=[[0,0.5],[1,0.5]];portConstraint=eastwest;" parent="15" vertex="1">
                    <mxGeometry y="60" width="160" height="26" as="geometry"/>
                </mxCell>
                <mxCell id="19" value="«interface»&lt;br&gt;Initializable" style="html=1;" parent="1" vertex="1">
                    <mxGeometry x="540" y="750" width="110" height="50" as="geometry"/>
                </mxCell>
            </root>
        </mxGraphModel>
    </diagram>
</mxfile>